<?xml version="1.0" encoding="UTF-8" standalone="no"?>
<!-- Created with Inkscape (http://www.inkscape.org/) -->

<svg
   xmlns:dc="http://purl.org/dc/elements/1.1/"
   xmlns:cc="http://creativecommons.org/ns#"
   xmlns:rdf="http://www.w3.org/1999/02/22-rdf-syntax-ns#"
   xmlns:svg="http://www.w3.org/2000/svg"
   xmlns="http://www.w3.org/2000/svg"
   xmlns:sodipodi="http://sodipodi.sourceforge.net/DTD/sodipodi-0.dtd"
   xmlns:inkscape="http://www.inkscape.org/namespaces/inkscape"
   width="72.113152mm"
   height="26.458256mm"
   viewBox="0 0 72.113151 26.458256"
   version="1.1"
   id="svg8"
   inkscape:version="0.92.4 (5da689c313, 2019-01-14)"
   sodipodi:docname="utfpr-logo.svg">
  <defs
     id="defs2" />
  <sodipodi:namedview
     id="base"
     pagecolor="#ffffff"
     bordercolor="#666666"
     borderopacity="1.0"
     inkscape:pageopacity="0.0"
     inkscape:pageshadow="2"
     inkscape:zoom="1.217943"
     inkscape:cx="497.14968"
     inkscape:cy="182.40436"
     inkscape:document-units="mm"
     inkscape:current-layer="layer1"
     showgrid="false"
     fit-margin-top="0"
     fit-margin-left="0"
     fit-margin-right="0"
     fit-margin-bottom="0"
     inkscape:pagecheckerboard="true"
     inkscape:window-width="1366"
     inkscape:window-height="705"
     inkscape:window-x="-8"
     inkscape:window-y="-8"
     inkscape:window-maximized="1" />
  <metadata
     id="metadata5">
    <rdf:RDF>
      <cc:Work
         rdf:about="">
        <dc:format>image/svg+xml</dc:format>
        <dc:type
           rdf:resource="http://purl.org/dc/dcmitype/StillImage" />
        <dc:title></dc:title>
      </cc:Work>
    </rdf:RDF>
  </metadata>
  <g
     inkscape:label="Layer 1"
     inkscape:groupmode="layer"
     id="layer1"
     transform="translate(198.61676,-218.57287)">
    <path
       style="opacity:1;fill:#ffffff;fill-opacity:0.90452259;stroke:#ffffff;stroke-width:0.06331211"
       d="m -190.58644,241.58667 c -0.43528,-0.0282 -0.97659,-0.0833 -1.20294,-0.1225 -0.22634,-0.0392 -0.59671,-0.10161 -0.82305,-0.13878 -0.22634,-0.0372 -0.42578,-0.0888 -0.44319,-0.11482 -0.0174,-0.026 -0.32368,-0.13758 -0.6806,-0.24798 -0.35692,-0.1104 -0.64895,-0.22177 -0.64895,-0.24747 0,-0.0257 -0.16879,-0.11378 -0.37509,-0.19572 -0.2063,-0.0819 -0.43403,-0.21678 -0.50608,-0.29964 -0.072,-0.0829 -0.16679,-0.15142 -0.21055,-0.15236 -0.0437,-9.5e-4 -0.22201,-0.13031 -0.39612,-0.28749 -0.1741,-0.15717 -0.39491,-0.33349 -0.49067,-0.39181 -0.0958,-0.0583 -0.1741,-0.1373 -0.1741,-0.17551 0,-0.0382 -0.0855,-0.15136 -0.18994,-0.25144 -0.10446,-0.10009 -0.18994,-0.21633 -0.18994,-0.25832 0,-0.042 -0.0356,-0.0902 -0.0791,-0.10709 -0.0435,-0.0169 -0.16112,-0.18377 -0.26132,-0.37082 -0.1002,-0.18704 -0.20847,-0.35689 -0.24059,-0.37743 -0.0321,-0.0205 -0.0631,-0.0989 -0.0687,-0.17411 -0.006,-0.0752 -0.0293,-0.13676 -0.0525,-0.13676 -0.0501,0 -0.14768,-0.24041 -0.25697,-0.63312 -0.0436,-0.15669 -0.10381,-0.30192 -0.13378,-0.32272 -0.081,-0.0562 -0.35781,-1.48313 -0.33013,-1.7018 0.0151,-0.1193 -0.0157,-0.22829 -0.0837,-0.29631 -0.10013,-0.10012 -0.10762,-0.65816 -0.10762,-8.02615 v -7.91856 l 2.23176,-0.0166 2.23175,-0.0166 v 6.92821 c 0,3.94802 0.024,6.93729 0.0559,6.94932 0.0307,0.0116 0.0711,0.30601 0.0898,0.65422 0.0186,0.34822 0.0807,0.8569 0.13797,1.13041 0.0573,0.27352 0.0891,0.5123 0.0708,0.53065 -0.0183,0.0183 0.008,0.0929 0.0594,0.16574 0.051,0.0728 0.0927,0.18066 0.0927,0.23966 0,0.059 0.022,0.11675 0.0488,0.12836 0.0268,0.0116 0.13179,0.22054 0.23322,0.46429 0.10144,0.24375 0.26467,0.52694 0.36273,0.62931 0.0981,0.10237 0.1783,0.2152 0.1783,0.25074 0,0.10805 0.68511,0.69969 1.00108,0.86449 0.16325,0.0852 0.31107,0.17284 0.32848,0.19486 0.0572,0.0724 0.61848,0.23974 1.02528,0.30575 0.60509,0.0982 1.74495,0.0798 2.30886,-0.0373 0.27293,-0.0567 0.56034,-0.10652 0.63869,-0.1108 0.0784,-0.004 0.14245,-0.0308 0.14245,-0.059 0,-0.0282 0.0287,-0.0335 0.0638,-0.0118 0.0351,0.0217 0.0811,-0.006 0.10228,-0.061 0.0212,-0.0552 0.17434,-0.1588 0.34036,-0.23022 0.16601,-0.0714 0.35754,-0.19188 0.42562,-0.26769 0.21673,-0.24137 0.44847,-0.41387 0.49724,-0.37013 0.026,0.0233 0.0297,0.0115 0.008,-0.0262 -0.0422,-0.0742 0.24201,-0.53291 0.33016,-0.53291 0.0295,0 0.0695,-0.0498 0.089,-0.11079 0.0194,-0.0609 0.10811,-0.28174 0.19703,-0.49067 0.0889,-0.20893 0.16181,-0.41549 0.16198,-0.45901 2.1e-4,-0.0435 0.0257,-0.0791 0.0567,-0.0791 0.079,0 0.25002,-0.78394 0.3585,-1.64371 0.075,-0.59441 0.0916,-2.00584 0.0916,-7.80201 v -7.07633 l 0.14245,-0.0343 c 0.0784,-0.0189 7.36478,-0.0265 16.19207,-0.017 l 16.04962,0.0173 0.0168,1.72504 0.0168,1.72504 -9.03882,0.016 -9.03882,0.016 -0.016,9.57596 -0.016,9.57596 h -2.21552 -2.21552 l -0.016,-9.57596 -0.016,-9.57596 -2.67494,-0.0165 -2.67493,-0.0165 -6e-5,5.87289 c -3e-5,3.58117 -0.0258,6.14465 -0.066,6.56932 -0.0698,0.73707 -0.29572,1.94108 -0.37428,1.99433 -0.0257,0.0174 -0.0675,0.11713 -0.0929,0.22159 -0.0629,0.25861 -0.36155,1.00551 -0.41776,1.04465 -0.025,0.0174 -0.12089,0.18123 -0.2131,0.36405 -0.12322,0.24429 -0.20512,0.33433 -0.30904,0.33973 -0.0947,0.005 -0.10728,0.0164 -0.0382,0.0348 0.0904,0.0241 0.0865,0.0476 -0.0317,0.19027 -0.35662,0.43053 -0.83172,0.90717 -0.90423,0.90717 -0.0445,0 -0.1112,0.0567 -0.14828,0.12597 -0.0371,0.0693 -0.14492,0.16613 -0.23965,0.21522 -0.0947,0.0491 -0.25179,0.16311 -0.34903,0.25337 -0.0972,0.0903 -0.25365,0.18342 -0.34759,0.20699 -0.0939,0.0236 -0.20872,0.0808 -0.25508,0.12716 -0.0464,0.0464 -0.12499,0.0843 -0.17473,0.0843 -0.0497,0 -0.0905,0.0262 -0.0905,0.0581 0,0.071 -0.78136,0.33755 -0.98961,0.33755 -0.0825,0 -0.15001,0.0249 -0.15001,0.0554 0,0.0305 -0.0688,0.0554 -0.153,0.0554 -0.0841,0 -0.1625,0.0279 -0.17411,0.0621 -0.0838,0.24651 -3.28537,0.48973 -4.9911,0.37918 z m -4.28812,-1.3862 c 0.0224,-0.0855 0.006,-0.11183 -0.0559,-0.0882 -0.0483,0.0185 -0.0878,0.0734 -0.0878,0.12188 0,0.13159 0.10707,0.10649 0.14373,-0.0337 z"
       id="path21"
       inkscape:connector-curvature="0" />
    <path
       style="opacity:1;fill:#ffff00;fill-opacity:0.90452259;stroke:#ffffff;stroke-width:0.06331211"
       d="m -169.12364,241.20873 c 0,-0.0348 0.0285,-0.0633 0.0633,-0.0633 0.0348,0 0.0633,-0.0712 0.0633,-0.15828 0,-0.0871 -0.0285,-0.15828 -0.0633,-0.15828 -0.0348,0 -0.0633,-0.0712 -0.0633,-0.15828 0,-0.0871 0.0285,-0.15828 0.0633,-0.15828 0.0419,0 0.0633,-2.92004 0.0633,-8.63349 v -8.6335 l 0.29374,-0.0403 c 0.16155,-0.0222 3.93654,-0.0403 8.38885,-0.0403 h 8.09512 v 1.70912 1.70912 l -6.22042,0.0161 -6.22041,0.0161 -0.0161,7.32838 -0.0161,7.32838 h -2.21566 c -1.4349,0 -2.21566,-0.0223 -2.21566,-0.0633 z"
       id="path23"
       inkscape:connector-curvature="0" />
    <path
       style="opacity:1;fill:#ffffff;fill-opacity:0.90452259;stroke:#ffffff;stroke-width:0.06331211"
       d="m -163.53634,241.29342 c -0.0626,-0.0253 -0.0791,-1.43233 -0.0791,-6.73774 v -6.70581 h 5.72974 5.72975 v 1.74108 1.74109 h -3.60879 -3.60879 v 5.00165 5.00166 l -2.04182,-0.005 c -1.123,-0.003 -2.07743,-0.0194 -2.12095,-0.0369 z"
       id="path25"
       inkscape:connector-curvature="0" />
    <path
       style="opacity:1;fill:#ffffff;fill-opacity:0.90452259;stroke:#ffffff;stroke-width:0.06331211"
       d="m -150.06669,234.49764 v -6.77439 h 3.29223 c 1.81072,0 3.29223,0.0244 3.29223,0.0541 0,0.0298 0.19527,0.0705 0.43393,0.0905 0.52622,0.0441 1.12359,0.21027 1.26687,0.35237 0.0579,0.0575 0.17617,0.1412 0.26274,0.18611 0.35494,0.1841 0.4478,0.25605 0.63585,0.49269 0.10831,0.13628 0.21877,0.26224 0.24548,0.27991 0.0881,0.0583 0.38405,0.56592 0.38405,0.65871 0,0.05 0.03,0.10095 0.0667,0.11318 0.16233,0.0541 0.32604,0.95981 0.33549,1.85603 0.01,0.90479 -0.12414,1.76888 -0.30155,1.9492 -0.0416,0.0422 -0.13957,0.20976 -0.21782,0.37227 -0.0783,0.16252 -0.21211,0.34124 -0.29745,0.39716 -0.0854,0.0559 -0.15517,0.13862 -0.15517,0.18377 0,0.0838 -0.27934,0.35817 -0.36473,0.35817 -0.026,0 -0.12179,0.0784 -0.21294,0.17411 -0.0911,0.0958 -0.34747,0.24426 -0.5696,0.33001 -0.22213,0.0857 -0.4208,0.17994 -0.44147,0.20932 -0.10373,0.14741 -1.12666,0.24205 -3.01722,0.27915 -1.75638,0.0345 -1.97874,0.0502 -1.98064,0.14041 -0.001,0.0559 -2.6e-4,1.17237 0.002,2.48111 0.002,1.30874 -0.014,2.42699 -0.0363,2.485 -0.0359,0.0937 -0.18516,0.10548 -1.3316,0.10548 h -1.29112 z m 6.06659,-0.73702 c 0.0555,-0.0842 0.43236,-0.21375 0.48083,-0.16528 0.0204,0.0204 0.037,0.007 0.037,-0.0291 0,-0.0364 0.082,-0.10013 0.18216,-0.14163 0.18591,-0.077 0.57758,-0.60755 0.57758,-0.78236 0,-0.0532 0.0356,-0.10858 0.0791,-0.12312 0.11684,-0.039 0.11861,-1.37796 0.002,-1.42275 -0.0464,-0.0178 -0.15751,-0.15717 -0.2469,-0.3097 -0.0963,-0.16432 -0.25041,-0.31904 -0.37819,-0.37967 -0.11862,-0.0563 -0.21567,-0.12648 -0.21567,-0.15599 0,-0.0295 -0.14958,-0.1003 -0.33239,-0.15733 -0.25641,-0.08 -0.70505,-0.11145 -1.96268,-0.13762 l -1.63028,-0.0339 -9e-5,1.98704 -9e-5,1.98705 1.68231,-0.0351 c 1.04647,-0.0219 1.69858,-0.0598 1.72534,-0.10043 z m 2.90658,-4.93601 c -0.021,-0.021 -0.0756,-0.0233 -0.12135,-0.005 -0.0505,0.0202 -0.0355,0.0352 0.0382,0.0383 0.0668,0.003 0.10414,-0.0122 0.0831,-0.0333 z"
       id="path27"
       inkscape:connector-curvature="0" />
    <path
       style="opacity:1;fill:#ffffff;fill-opacity:0.90452259;stroke:#ffffff;stroke-width:0.06331211"
       d="m -138.89245,241.12959 c -0.0189,-0.0784 -0.0266,-3.12819 -0.017,-6.77741 l 0.0174,-6.63496 3.6721,0.004 c 2.33447,0.003 3.67979,0.0269 3.69321,0.0663 0.0116,0.0341 0.12557,0.0632 0.25324,0.0647 0.12768,0.002 0.36036,0.0303 0.51705,0.0641 0.1567,0.0337 0.35613,0.0763 0.44319,0.0947 0.33579,0.071 0.72346,0.25014 0.90995,0.42047 0.10701,0.0977 0.22864,0.17772 0.27027,0.17772 0.0416,0 0.13557,0.0969 0.20876,0.21531 0.0732,0.11842 0.17198,0.23024 0.21954,0.24849 0.0476,0.0182 0.16806,0.19915 0.26779,0.40199 0.0997,0.20284 0.19764,0.38304 0.21758,0.40045 0.12782,0.11163 0.26834,0.92329 0.27403,1.58281 0.006,0.7274 -0.15303,1.64611 -0.28544,1.64611 -0.0311,0 -0.0565,0.0331 -0.0565,0.0736 0,0.17699 -0.78479,1.19265 -0.92155,1.19265 -0.0221,0 -0.11587,0.0532 -0.2083,0.11831 -0.0924,0.0651 -0.23917,0.14045 -0.32609,0.1675 -0.0869,0.027 -0.18664,0.0835 -0.22159,0.12538 -0.0733,0.0878 -0.60439,0.25571 -1.10338,0.34874 -0.18886,0.0352 -0.35553,0.0762 -0.37038,0.091 -0.0541,0.0541 0.0623,0.16594 0.25909,0.24902 0.11079,0.0468 0.323,0.20018 0.47158,0.34089 0.14858,0.14071 0.31535,0.27319 0.37061,0.2944 0.0553,0.0212 0.0847,0.0796 0.0655,0.12976 -0.0224,0.0585 -0.004,0.0795 0.0503,0.0585 0.0493,-0.0189 0.16083,0.0692 0.26448,0.20899 0.0986,0.13293 0.27244,0.34059 0.38636,0.46145 0.11393,0.12086 0.20714,0.2532 0.20714,0.29408 0,0.0409 0.0707,0.14144 0.15719,0.22344 0.0864,0.082 0.15768,0.17319 0.15828,0.20264 6.5e-4,0.0294 0.0572,0.13238 0.12584,0.22874 0.0686,0.0964 0.10661,0.19335 0.0844,0.21553 -0.0222,0.0222 10e-4,0.0403 0.052,0.0403 0.0508,0 0.17177,0.15696 0.2689,0.3488 0.0971,0.19185 0.21556,0.38775 0.26315,0.43534 0.0476,0.0476 0.14234,0.18588 0.21053,0.3073 0.0682,0.12142 0.16229,0.28878 0.2091,0.37189 0.0468,0.0831 0.10219,0.16538 0.1231,0.18279 0.0209,0.0174 0.13201,0.2026 0.24689,0.41153 0.11489,0.20893 0.22885,0.39411 0.25325,0.41152 0.0677,0.0483 0.21861,0.34196 0.20339,0.39571 -0.007,0.0261 0.015,0.0475 0.0499,0.0475 0.0348,0 0.0633,0.0427 0.0633,0.095 0,0.0817 -0.20702,0.095 -1.48332,0.095 h -1.48333 l -0.22567,-0.21284 c -0.12412,-0.11706 -0.26898,-0.31649 -0.32192,-0.44318 -0.0529,-0.12669 -0.15284,-0.26569 -0.22202,-0.30889 -0.0692,-0.0432 -0.12578,-0.10291 -0.12578,-0.13268 0,-0.0298 -0.0587,-0.13662 -0.13051,-0.23743 -0.0718,-0.10081 -0.13474,-0.23932 -0.13989,-0.30779 -0.005,-0.0685 -0.0201,-0.11382 -0.0331,-0.10076 -0.037,0.037 -0.26612,-0.17612 -0.26769,-0.24901 -7.8e-4,-0.0358 -0.0571,-0.13629 -0.12522,-0.22335 -0.0681,-0.087 -0.12444,-0.20814 -0.12522,-0.26908 -7.7e-4,-0.0609 -0.038,-0.11079 -0.0827,-0.11079 -0.0819,0 -0.33021,-0.35708 -0.33021,-0.47484 0,-0.0348 -0.0784,-0.13376 -0.17411,-0.21986 -0.0958,-0.0861 -0.17411,-0.1866 -0.17411,-0.22332 0,-0.0367 -0.0834,-0.15805 -0.1853,-0.26963 -0.10191,-0.11158 -0.20236,-0.25663 -0.22321,-0.32232 -0.0209,-0.0657 -0.0942,-0.17035 -0.16291,-0.23258 -0.0688,-0.0622 -0.12501,-0.15045 -0.12501,-0.19606 0,-0.0456 -0.0544,-0.11206 -0.12097,-0.14766 -0.0665,-0.0356 -0.18207,-0.16361 -0.25675,-0.28444 -0.0768,-0.12426 -0.25802,-0.28075 -0.41718,-0.36024 -0.15478,-0.0773 -0.28141,-0.16114 -0.28141,-0.18632 0,-0.13187 -1.90243,-0.3125 -2.07597,-0.19709 -0.0646,0.043 -0.0809,0.62179 -0.078,2.77913 0.002,1.49866 -0.0142,2.77123 -0.0359,2.82793 -0.0466,0.12152 -0.25258,0.13766 -0.30564,0.024 -0.0296,-0.0633 -0.0443,-0.0633 -0.0739,0 -0.0274,0.0587 -0.3128,0.0791 -1.10675,0.0791 -1.05704,0 -1.07024,-0.002 -1.10424,-0.14246 z m 6.015,-7.7152 c 0.55714,-0.0354 1.0771,-0.0697 1.15544,-0.0762 0.0784,-0.006 0.14246,-0.0474 0.14246,-0.0909 0,-0.0435 0.0315,-0.0791 0.07,-0.0791 0.17988,0 0.56604,-0.40285 0.67192,-0.70097 0.061,-0.17161 0.13263,-0.31203 0.15928,-0.31203 0.0266,0 0.0485,-0.21367 0.0485,-0.47484 0,-0.26116 -0.024,-0.47484 -0.0533,-0.47484 -0.0293,0 -0.0889,-0.11872 -0.13234,-0.26383 -0.12289,-0.41018 -0.6263,-0.84444 -1.06602,-0.91957 -0.16472,-0.0281 -1.21882,-0.0512 -2.34244,-0.0512 h -2.04293 l -0.0147,1.75693 -0.0147,1.75693 1.20293,-0.003 c 0.66162,-0.002 1.65878,-0.0319 2.21593,-0.0674 z m 1.84764,-3.17053 c -0.0202,-0.0505 -0.0352,-0.0355 -0.0383,0.0382 -0.003,0.0667 0.0122,0.10414 0.0333,0.0831 0.021,-0.021 0.0233,-0.0756 0.005,-0.12135 z"
       id="path29"
       inkscape:connector-curvature="0" />
    <text
       xml:space="preserve"
       style="font-style:normal;font-variant:normal;font-weight:normal;font-stretch:normal;font-size:2.73516059px;line-height:1.25;font-family:Tahoma;-inkscape-font-specification:Tahoma;letter-spacing:0px;word-spacing:0px;fill:#ffffff;fill-opacity:1;stroke:none;stroke-width:0.06837901"
       x="-198.81308"
       y="244.9964"
       id="text44"><tspan
         sodipodi:role="line"
         id="tspan42"
         x="-198.81308"
         y="244.9964"
         style="font-style:normal;font-variant:normal;font-weight:bold;font-stretch:normal;font-family:ARIAL;-inkscape-font-specification:'ARIAL Bold';fill:#ffffff;stroke-width:0.06837901">UNIVERSIDADE TECNOLÓGICA FEDERAL DO PARANÁ</tspan></text>
  </g>
</svg>
